<svg version = "1.1" baseProfile = "full" width = "1000" height = "1000"  xmlns="http://www.w3.org/2000/svg">
<rect x = "0" y = "0" width="600" height="500" fill="red" stroke = "black" stroke-width = "1" />
<rect x = "0" y = "0" width="40" height="25" fill="green" stroke = "black" stroke-width = "1" />
<rect x = "40" y = "0" width="40" height="25" fill="green" stroke = "black" stroke-width = "1" />
<rect x = "80" y = "0" width="40" height="25" fill="green" stroke = "black" stroke-width = "1" />
<rect x = "120" y = "0" width="40" height="25" fill="green" stroke = "black" stroke-width = "1" />
<rect x = "160" y = "0" width="40" height="25" fill="green" stroke = "black" stroke-width = "1" />
<rect x = "200" y = "0" width="40" height="25" fill="green" stroke = "black" stroke-width = "1" />
<rect x = "240" y = "0" width="40" height="25" fill="green" stroke = "black" stroke-width = "1" />
<rect x = "280" y = "0" width="40" height="25" fill="green" stroke = "black" stroke-width = "1" />
<rect x = "320" y = "0" width="40" height="25" fill="green" stroke = "black" stroke-width = "1" />
<rect x = "360" y = "0" width="40" height="25" fill="green" stroke = "black" stroke-width = "1" />
<rect x = "400" y = "0" width="40" height="25" fill="green" stroke = "black" stroke-width = "1" />
<rect x = "440" y = "0" width="40" height="25" fill="green" stroke = "black" stroke-width = "1" />
<rect x = "480" y = "0" width="40" height="25" fill="green" stroke = "black" stroke-width = "1" />
<rect x = "520" y = "0" width="40" height="25" fill="green" stroke = "black" stroke-width = "1" />
<rect x = "560" y = "0" width="40" height="25" fill="green" stroke = "black" stroke-width = "1" />
<rect x = "0" y = "25" width="40" height="25" fill="green" stroke = "black" stroke-width = "1" />
<rect x = "40" y = "25" width="40" height="25" fill="green" stroke = "black" stroke-width = "1" />
<rect x = "80" y = "25" width="40" height="25" fill="green" stroke = "black" stroke-width = "1" />
<rect x = "120" y = "25" width="40" height="25" fill="green" stroke = "black" stroke-width = "1" />
<rect x = "160" y = "25" width="40" height="25" fill="green" stroke = "black" stroke-width = "1" />
<rect x = "200" y = "25" width="40" height="25" fill="green" stroke = "black" stroke-width = "1" />
<rect x = "240" y = "25" width="40" height="25" fill="green" stroke = "black" stroke-width = "1" />
<rect x = "280" y = "25" width="40" height="25" fill="green" stroke = "black" stroke-width = "1" />
<rect x = "320" y = "25" width="40" height="25" fill="green" stroke = "black" stroke-width = "1" />
<rect x = "360" y = "25" width="40" height="25" fill="green" stroke = "black" stroke-width = "1" />
<rect x = "400" y = "25" width="40" height="25" fill="green" stroke = "black" stroke-width = "1" />
<rect x = "440" y = "25" width="40" height="25" fill="green" stroke = "black" stroke-width = "1" />
<rect x = "480" y = "25" width="40" height="25" fill="green" stroke = "black" stroke-width = "1" />
<rect x = "520" y = "25" width="40" height="25" fill="green" stroke = "black" stroke-width = "1" />
<rect x = "560" y = "25" width="40" height="25" fill="green" stroke = "black" stroke-width = "1" />
<rect x = "0" y = "50" width="40" height="25" fill="green" stroke = "black" stroke-width = "1" />
<rect x = "40" y = "50" width="40" height="25" fill="green" stroke = "black" stroke-width = "1" />
<rect x = "80" y = "50" width="40" height="25" fill="green" stroke = "black" stroke-width = "1" />
<rect x = "120" y = "50" width="40" height="25" fill="green" stroke = "black" stroke-width = "1" />
<rect x = "160" y = "50" width="40" height="25" fill="green" stroke = "black" stroke-width = "1" />
<rect x = "200" y = "50" width="40" height="25" fill="green" stroke = "black" stroke-width = "1" />
<rect x = "240" y = "50" width="40" height="25" fill="green" stroke = "black" stroke-width = "1" />
<rect x = "280" y = "50" width="40" height="25" fill="green" stroke = "black" stroke-width = "1" />
<rect x = "320" y = "50" width="40" height="25" fill="green" stroke = "black" stroke-width = "1" />
<rect x = "360" y = "50" width="40" height="25" fill="green" stroke = "black" stroke-width = "1" />
<rect x = "400" y = "50" width="40" height="25" fill="green" stroke = "black" stroke-width = "1" />
<rect x = "440" y = "50" width="40" height="25" fill="green" stroke = "black" stroke-width = "1" />
<rect x = "480" y = "50" width="40" height="25" fill="green" stroke = "black" stroke-width = "1" />
<rect x = "520" y = "50" width="40" height="25" fill="green" stroke = "black" stroke-width = "1" />
<rect x = "560" y = "50" width="40" height="25" fill="green" stroke = "black" stroke-width = "1" />
<rect x = "0" y = "75" width="40" height="25" fill="green" stroke = "black" stroke-width = "1" />
<rect x = "40" y = "75" width="40" height="25" fill="green" stroke = "black" stroke-width = "1" />
<rect x = "80" y = "75" width="40" height="25" fill="green" stroke = "black" stroke-width = "1" />
<rect x = "120" y = "75" width="40" height="25" fill="green" stroke = "black" stroke-width = "1" />
<rect x = "160" y = "75" width="40" height="25" fill="green" stroke = "black" stroke-width = "1" />
<rect x = "200" y = "75" width="40" height="25" fill="green" stroke = "black" stroke-width = "1" />
<rect x = "240" y = "75" width="40" height="25" fill="green" stroke = "black" stroke-width = "1" />
<rect x = "280" y = "75" width="40" height="25" fill="green" stroke = "black" stroke-width = "1" />
<rect x = "320" y = "75" width="40" height="25" fill="green" stroke = "black" stroke-width = "1" />
<rect x = "360" y = "75" width="40" height="25" fill="green" stroke = "black" stroke-width = "1" />
<rect x = "400" y = "75" width="40" height="25" fill="green" stroke = "black" stroke-width = "1" />
<rect x = "440" y = "75" width="40" height="25" fill="green" stroke = "black" stroke-width = "1" />
<rect x = "480" y = "75" width="40" height="25" fill="green" stroke = "black" stroke-width = "1" />
<rect x = "520" y = "75" width="40" height="25" fill="green" stroke = "black" stroke-width = "1" />
<rect x = "560" y = "75" width="40" height="25" fill="green" stroke = "black" stroke-width = "1" />
<rect x = "0" y = "100" width="40" height="25" fill="green" stroke = "black" stroke-width = "1" />
<rect x = "40" y = "100" width="40" height="25" fill="green" stroke = "black" stroke-width = "1" />
<rect x = "80" y = "100" width="40" height="25" fill="green" stroke = "black" stroke-width = "1" />
<rect x = "120" y = "100" width="40" height="25" fill="green" stroke = "black" stroke-width = "1" />
<rect x = "160" y = "100" width="40" height="25" fill="green" stroke = "black" stroke-width = "1" />
<rect x = "200" y = "100" width="40" height="25" fill="green" stroke = "black" stroke-width = "1" />
<rect x = "240" y = "100" width="40" height="25" fill="green" stroke = "black" stroke-width = "1" />
<rect x = "280" y = "100" width="40" height="25" fill="green" stroke = "black" stroke-width = "1" />
<rect x = "320" y = "100" width="40" height="25" fill="green" stroke = "black" stroke-width = "1" />
<rect x = "360" y = "100" width="40" height="25" fill="green" stroke = "black" stroke-width = "1" />
<rect x = "400" y = "100" width="40" height="25" fill="green" stroke = "black" stroke-width = "1" />
<rect x = "440" y = "100" width="40" height="25" fill="green" stroke = "black" stroke-width = "1" />
<rect x = "480" y = "100" width="40" height="25" fill="green" stroke = "black" stroke-width = "1" />
<rect x = "520" y = "100" width="40" height="25" fill="green" stroke = "black" stroke-width = "1" />
<rect x = "560" y = "100" width="40" height="25" fill="green" stroke = "black" stroke-width = "1" />
<rect x = "0" y = "125" width="40" height="25" fill="green" stroke = "black" stroke-width = "1" />
<rect x = "40" y = "125" width="40" height="25" fill="green" stroke = "black" stroke-width = "1" />
<rect x = "80" y = "125" width="40" height="25" fill="green" stroke = "black" stroke-width = "1" />
<rect x = "120" y = "125" width="40" height="25" fill="green" stroke = "black" stroke-width = "1" />
<rect x = "160" y = "125" width="40" height="25" fill="green" stroke = "black" stroke-width = "1" />
<rect x = "200" y = "125" width="40" height="25" fill="green" stroke = "black" stroke-width = "1" />
<rect x = "240" y = "125" width="40" height="25" fill="green" stroke = "black" stroke-width = "1" />
<rect x = "280" y = "125" width="40" height="25" fill="green" stroke = "black" stroke-width = "1" />
<rect x = "320" y = "125" width="40" height="25" fill="green" stroke = "black" stroke-width = "1" />
<rect x = "360" y = "125" width="40" height="25" fill="green" stroke = "black" stroke-width = "1" />
<rect x = "400" y = "125" width="40" height="25" fill="green" stroke = "black" stroke-width = "1" />
<rect x = "440" y = "125" width="40" height="25" fill="green" stroke = "black" stroke-width = "1" />
<rect x = "480" y = "125" width="40" height="25" fill="green" stroke = "black" stroke-width = "1" />
<rect x = "520" y = "125" width="40" height="25" fill="green" stroke = "black" stroke-width = "1" />
<rect x = "560" y = "125" width="40" height="25" fill="green" stroke = "black" stroke-width = "1" />
<rect x = "0" y = "150" width="40" height="25" fill="green" stroke = "black" stroke-width = "1" />
<rect x = "40" y = "150" width="40" height="25" fill="green" stroke = "black" stroke-width = "1" />
<rect x = "80" y = "150" width="40" height="25" fill="green" stroke = "black" stroke-width = "1" />
<rect x = "120" y = "150" width="40" height="25" fill="green" stroke = "black" stroke-width = "1" />
<rect x = "160" y = "150" width="40" height="25" fill="green" stroke = "black" stroke-width = "1" />
<rect x = "200" y = "150" width="40" height="25" fill="green" stroke = "black" stroke-width = "1" />
<rect x = "240" y = "150" width="40" height="25" fill="green" stroke = "black" stroke-width = "1" />
<rect x = "280" y = "150" width="40" height="25" fill="green" stroke = "black" stroke-width = "1" />
<rect x = "320" y = "150" width="40" height="25" fill="green" stroke = "black" stroke-width = "1" />
<rect x = "360" y = "150" width="40" height="25" fill="green" stroke = "black" stroke-width = "1" />
<rect x = "400" y = "150" width="40" height="25" fill="green" stroke = "black" stroke-width = "1" />
<rect x = "440" y = "150" width="40" height="25" fill="green" stroke = "black" stroke-width = "1" />
<rect x = "480" y = "150" width="40" height="25" fill="green" stroke = "black" stroke-width = "1" />
<rect x = "520" y = "150" width="40" height="25" fill="green" stroke = "black" stroke-width = "1" />
<rect x = "560" y = "150" width="40" height="25" fill="green" stroke = "black" stroke-width = "1" />
<rect x = "0" y = "175" width="40" height="25" fill="green" stroke = "black" stroke-width = "1" />
<rect x = "40" y = "175" width="40" height="25" fill="green" stroke = "black" stroke-width = "1" />
<rect x = "80" y = "175" width="40" height="25" fill="green" stroke = "black" stroke-width = "1" />
<rect x = "120" y = "175" width="40" height="25" fill="green" stroke = "black" stroke-width = "1" />
<rect x = "160" y = "175" width="40" height="25" fill="green" stroke = "black" stroke-width = "1" />
<rect x = "200" y = "175" width="40" height="25" fill="green" stroke = "black" stroke-width = "1" />
<rect x = "240" y = "175" width="40" height="25" fill="green" stroke = "black" stroke-width = "1" />
<rect x = "280" y = "175" width="40" height="25" fill="green" stroke = "black" stroke-width = "1" />
<rect x = "320" y = "175" width="40" height="25" fill="green" stroke = "black" stroke-width = "1" />
<rect x = "360" y = "175" width="40" height="25" fill="green" stroke = "black" stroke-width = "1" />
<rect x = "400" y = "175" width="40" height="25" fill="green" stroke = "black" stroke-width = "1" />
<rect x = "440" y = "175" width="40" height="25" fill="green" stroke = "black" stroke-width = "1" />
<rect x = "480" y = "175" width="40" height="25" fill="green" stroke = "black" stroke-width = "1" />
<rect x = "520" y = "175" width="40" height="25" fill="green" stroke = "black" stroke-width = "1" />
<rect x = "560" y = "175" width="40" height="25" fill="green" stroke = "black" stroke-width = "1" />
<rect x = "0" y = "200" width="40" height="25" fill="green" stroke = "black" stroke-width = "1" />
<rect x = "40" y = "200" width="40" height="25" fill="green" stroke = "black" stroke-width = "1" />
<rect x = "80" y = "200" width="40" height="25" fill="green" stroke = "black" stroke-width = "1" />
<rect x = "120" y = "200" width="40" height="25" fill="green" stroke = "black" stroke-width = "1" />
<rect x = "160" y = "200" width="40" height="25" fill="green" stroke = "black" stroke-width = "1" />
<rect x = "200" y = "200" width="40" height="25" fill="green" stroke = "black" stroke-width = "1" />
<rect x = "240" y = "200" width="40" height="25" fill="green" stroke = "black" stroke-width = "1" />
<rect x = "280" y = "200" width="40" height="25" fill="green" stroke = "black" stroke-width = "1" />
<rect x = "320" y = "200" width="40" height="25" fill="green" stroke = "black" stroke-width = "1" />
<rect x = "360" y = "200" width="40" height="25" fill="green" stroke = "black" stroke-width = "1" />
<rect x = "400" y = "200" width="40" height="25" fill="green" stroke = "black" stroke-width = "1" />
<rect x = "440" y = "200" width="40" height="25" fill="green" stroke = "black" stroke-width = "1" />
<rect x = "480" y = "200" width="40" height="25" fill="green" stroke = "black" stroke-width = "1" />
<rect x = "520" y = "200" width="40" height="25" fill="green" stroke = "black" stroke-width = "1" />
<rect x = "560" y = "200" width="40" height="25" fill="green" stroke = "black" stroke-width = "1" />
<rect x = "0" y = "225" width="40" height="25" fill="green" stroke = "black" stroke-width = "1" />
<rect x = "40" y = "225" width="40" height="25" fill="green" stroke = "black" stroke-width = "1" />
<rect x = "80" y = "225" width="40" height="25" fill="green" stroke = "black" stroke-width = "1" />
<rect x = "120" y = "225" width="40" height="25" fill="green" stroke = "black" stroke-width = "1" />
<rect x = "160" y = "225" width="40" height="25" fill="green" stroke = "black" stroke-width = "1" />
<rect x = "200" y = "225" width="40" height="25" fill="green" stroke = "black" stroke-width = "1" />
<rect x = "240" y = "225" width="40" height="25" fill="green" stroke = "black" stroke-width = "1" />
<rect x = "280" y = "225" width="40" height="25" fill="green" stroke = "black" stroke-width = "1" />
<rect x = "320" y = "225" width="40" height="25" fill="green" stroke = "black" stroke-width = "1" />
<rect x = "360" y = "225" width="40" height="25" fill="green" stroke = "black" stroke-width = "1" />
<rect x = "400" y = "225" width="40" height="25" fill="green" stroke = "black" stroke-width = "1" />
<rect x = "440" y = "225" width="40" height="25" fill="green" stroke = "black" stroke-width = "1" />
<rect x = "480" y = "225" width="40" height="25" fill="green" stroke = "black" stroke-width = "1" />
<rect x = "520" y = "225" width="40" height="25" fill="green" stroke = "black" stroke-width = "1" />
<rect x = "560" y = "225" width="40" height="25" fill="green" stroke = "black" stroke-width = "1" />
<rect x = "0" y = "250" width="40" height="25" fill="green" stroke = "black" stroke-width = "1" />
<rect x = "40" y = "250" width="40" height="25" fill="green" stroke = "black" stroke-width = "1" />
<rect x = "80" y = "250" width="40" height="25" fill="green" stroke = "black" stroke-width = "1" />
<rect x = "120" y = "250" width="40" height="25" fill="green" stroke = "black" stroke-width = "1" />
<rect x = "160" y = "250" width="40" height="25" fill="green" stroke = "black" stroke-width = "1" />
<rect x = "200" y = "250" width="40" height="25" fill="green" stroke = "black" stroke-width = "1" />
<rect x = "240" y = "250" width="40" height="25" fill="green" stroke = "black" stroke-width = "1" />
<rect x = "280" y = "250" width="40" height="25" fill="green" stroke = "black" stroke-width = "1" />
<rect x = "320" y = "250" width="40" height="25" fill="green" stroke = "black" stroke-width = "1" />
<rect x = "360" y = "250" width="40" height="25" fill="green" stroke = "black" stroke-width = "1" />
<rect x = "400" y = "250" width="40" height="25" fill="green" stroke = "black" stroke-width = "1" />
<rect x = "440" y = "250" width="40" height="25" fill="green" stroke = "black" stroke-width = "1" />
<rect x = "480" y = "250" width="40" height="25" fill="green" stroke = "black" stroke-width = "1" />
<rect x = "520" y = "250" width="40" height="25" fill="green" stroke = "black" stroke-width = "1" />
<rect x = "560" y = "250" width="40" height="25" fill="green" stroke = "black" stroke-width = "1" />
<rect x = "0" y = "275" width="40" height="25" fill="green" stroke = "black" stroke-width = "1" />
<rect x = "40" y = "275" width="40" height="25" fill="green" stroke = "black" stroke-width = "1" />
<rect x = "80" y = "275" width="40" height="25" fill="green" stroke = "black" stroke-width = "1" />
<rect x = "120" y = "275" width="40" height="25" fill="green" stroke = "black" stroke-width = "1" />
<rect x = "160" y = "275" width="40" height="25" fill="green" stroke = "black" stroke-width = "1" />
<rect x = "200" y = "275" width="40" height="25" fill="green" stroke = "black" stroke-width = "1" />
<rect x = "240" y = "275" width="40" height="25" fill="green" stroke = "black" stroke-width = "1" />
<rect x = "280" y = "275" width="40" height="25" fill="green" stroke = "black" stroke-width = "1" />
<rect x = "320" y = "275" width="40" height="25" fill="green" stroke = "black" stroke-width = "1" />
<rect x = "360" y = "275" width="40" height="25" fill="green" stroke = "black" stroke-width = "1" />
<rect x = "400" y = "275" width="40" height="25" fill="green" stroke = "black" stroke-width = "1" />
<rect x = "440" y = "275" width="40" height="25" fill="green" stroke = "black" stroke-width = "1" />
<rect x = "480" y = "275" width="40" height="25" fill="green" stroke = "black" stroke-width = "1" />
<rect x = "520" y = "275" width="40" height="25" fill="green" stroke = "black" stroke-width = "1" />
<rect x = "560" y = "275" width="40" height="25" fill="green" stroke = "black" stroke-width = "1" />
<rect x = "0" y = "300" width="40" height="25" fill="green" stroke = "black" stroke-width = "1" />
<rect x = "40" y = "300" width="40" height="25" fill="green" stroke = "black" stroke-width = "1" />
<rect x = "80" y = "300" width="40" height="25" fill="green" stroke = "black" stroke-width = "1" />
<rect x = "120" y = "300" width="40" height="25" fill="green" stroke = "black" stroke-width = "1" />
<rect x = "160" y = "300" width="40" height="25" fill="green" stroke = "black" stroke-width = "1" />
<rect x = "200" y = "300" width="40" height="25" fill="green" stroke = "black" stroke-width = "1" />
<rect x = "240" y = "300" width="40" height="25" fill="green" stroke = "black" stroke-width = "1" />
<rect x = "280" y = "300" width="40" height="25" fill="green" stroke = "black" stroke-width = "1" />
<rect x = "320" y = "300" width="40" height="25" fill="green" stroke = "black" stroke-width = "1" />
<rect x = "360" y = "300" width="40" height="25" fill="green" stroke = "black" stroke-width = "1" />
<rect x = "400" y = "300" width="40" height="25" fill="green" stroke = "black" stroke-width = "1" />
<rect x = "440" y = "300" width="40" height="25" fill="green" stroke = "black" stroke-width = "1" />
<rect x = "480" y = "300" width="40" height="25" fill="green" stroke = "black" stroke-width = "1" />
<rect x = "520" y = "300" width="40" height="25" fill="green" stroke = "black" stroke-width = "1" />
<rect x = "560" y = "300" width="40" height="25" fill="green" stroke = "black" stroke-width = "1" />
<rect x = "0" y = "325" width="40" height="25" fill="green" stroke = "black" stroke-width = "1" />
<rect x = "40" y = "325" width="40" height="25" fill="green" stroke = "black" stroke-width = "1" />
<rect x = "80" y = "325" width="40" height="25" fill="green" stroke = "black" stroke-width = "1" />
<rect x = "120" y = "325" width="40" height="25" fill="green" stroke = "black" stroke-width = "1" />
<rect x = "160" y = "325" width="40" height="25" fill="green" stroke = "black" stroke-width = "1" />
<rect x = "200" y = "325" width="40" height="25" fill="green" stroke = "black" stroke-width = "1" />
<rect x = "240" y = "325" width="40" height="25" fill="green" stroke = "black" stroke-width = "1" />
<rect x = "280" y = "325" width="40" height="25" fill="green" stroke = "black" stroke-width = "1" />
<rect x = "320" y = "325" width="40" height="25" fill="green" stroke = "black" stroke-width = "1" />
<rect x = "360" y = "325" width="40" height="25" fill="green" stroke = "black" stroke-width = "1" />
<rect x = "400" y = "325" width="40" height="25" fill="green" stroke = "black" stroke-width = "1" />
<rect x = "440" y = "325" width="40" height="25" fill="green" stroke = "black" stroke-width = "1" />
<rect x = "480" y = "325" width="40" height="25" fill="green" stroke = "black" stroke-width = "1" />
<rect x = "520" y = "325" width="40" height="25" fill="green" stroke = "black" stroke-width = "1" />
<rect x = "560" y = "325" width="40" height="25" fill="green" stroke = "black" stroke-width = "1" />
<rect x = "0" y = "350" width="40" height="25" fill="green" stroke = "black" stroke-width = "1" />
<rect x = "40" y = "350" width="40" height="25" fill="green" stroke = "black" stroke-width = "1" />
<rect x = "80" y = "350" width="40" height="25" fill="green" stroke = "black" stroke-width = "1" />
<rect x = "120" y = "350" width="40" height="25" fill="green" stroke = "black" stroke-width = "1" />
<rect x = "160" y = "350" width="40" height="25" fill="green" stroke = "black" stroke-width = "1" />
<rect x = "200" y = "350" width="40" height="25" fill="green" stroke = "black" stroke-width = "1" />
<rect x = "240" y = "350" width="40" height="25" fill="green" stroke = "black" stroke-width = "1" />
<rect x = "280" y = "350" width="40" height="25" fill="green" stroke = "black" stroke-width = "1" />
<rect x = "320" y = "350" width="40" height="25" fill="green" stroke = "black" stroke-width = "1" />
<rect x = "360" y = "350" width="40" height="25" fill="green" stroke = "black" stroke-width = "1" />
<rect x = "400" y = "350" width="40" height="25" fill="green" stroke = "black" stroke-width = "1" />
<rect x = "440" y = "350" width="40" height="25" fill="green" stroke = "black" stroke-width = "1" />
<rect x = "480" y = "350" width="40" height="25" fill="green" stroke = "black" stroke-width = "1" />
<rect x = "520" y = "350" width="40" height="25" fill="green" stroke = "black" stroke-width = "1" />
<rect x = "560" y = "350" width="40" height="25" fill="green" stroke = "black" stroke-width = "1" />
<rect x = "0" y = "375" width="40" height="25" fill="green" stroke = "black" stroke-width = "1" />
<rect x = "40" y = "375" width="40" height="25" fill="green" stroke = "black" stroke-width = "1" />
<rect x = "80" y = "375" width="40" height="25" fill="green" stroke = "black" stroke-width = "1" />
<rect x = "120" y = "375" width="40" height="25" fill="green" stroke = "black" stroke-width = "1" />
<rect x = "160" y = "375" width="40" height="25" fill="green" stroke = "black" stroke-width = "1" />
<rect x = "200" y = "375" width="40" height="25" fill="green" stroke = "black" stroke-width = "1" />
<rect x = "240" y = "375" width="40" height="25" fill="green" stroke = "black" stroke-width = "1" />
<rect x = "280" y = "375" width="40" height="25" fill="green" stroke = "black" stroke-width = "1" />
<rect x = "320" y = "375" width="40" height="25" fill="green" stroke = "black" stroke-width = "1" />
<rect x = "360" y = "375" width="40" height="25" fill="green" stroke = "black" stroke-width = "1" />
<rect x = "400" y = "375" width="40" height="25" fill="green" stroke = "black" stroke-width = "1" />
<rect x = "440" y = "375" width="40" height="25" fill="green" stroke = "black" stroke-width = "1" />
<rect x = "480" y = "375" width="40" height="25" fill="green" stroke = "black" stroke-width = "1" />
<rect x = "520" y = "375" width="40" height="25" fill="green" stroke = "black" stroke-width = "1" />
<rect x = "560" y = "375" width="40" height="25" fill="green" stroke = "black" stroke-width = "1" />
<rect x = "0" y = "400" width="40" height="25" fill="green" stroke = "black" stroke-width = "1" />
<rect x = "40" y = "400" width="40" height="25" fill="green" stroke = "black" stroke-width = "1" />
<rect x = "80" y = "400" width="40" height="25" fill="green" stroke = "black" stroke-width = "1" />
<rect x = "120" y = "400" width="40" height="25" fill="green" stroke = "black" stroke-width = "1" />
<rect x = "160" y = "400" width="40" height="25" fill="green" stroke = "black" stroke-width = "1" />
<rect x = "200" y = "400" width="40" height="25" fill="green" stroke = "black" stroke-width = "1" />
<rect x = "240" y = "400" width="40" height="25" fill="green" stroke = "black" stroke-width = "1" />
<rect x = "280" y = "400" width="40" height="25" fill="green" stroke = "black" stroke-width = "1" />
<rect x = "320" y = "400" width="40" height="25" fill="green" stroke = "black" stroke-width = "1" />
<rect x = "360" y = "400" width="40" height="25" fill="green" stroke = "black" stroke-width = "1" />
<rect x = "400" y = "400" width="40" height="25" fill="green" stroke = "black" stroke-width = "1" />
<rect x = "440" y = "400" width="40" height="25" fill="green" stroke = "black" stroke-width = "1" />
<rect x = "480" y = "400" width="40" height="25" fill="green" stroke = "black" stroke-width = "1" />
<rect x = "520" y = "400" width="40" height="25" fill="green" stroke = "black" stroke-width = "1" />
<rect x = "560" y = "400" width="40" height="25" fill="green" stroke = "black" stroke-width = "1" />
<rect x = "0" y = "425" width="40" height="25" fill="green" stroke = "black" stroke-width = "1" />
<rect x = "40" y = "425" width="40" height="25" fill="green" stroke = "black" stroke-width = "1" />
<rect x = "80" y = "425" width="40" height="25" fill="green" stroke = "black" stroke-width = "1" />
<rect x = "120" y = "425" width="40" height="25" fill="green" stroke = "black" stroke-width = "1" />
<rect x = "160" y = "425" width="40" height="25" fill="green" stroke = "black" stroke-width = "1" />
<rect x = "200" y = "425" width="40" height="25" fill="green" stroke = "black" stroke-width = "1" />
<rect x = "240" y = "425" width="40" height="25" fill="green" stroke = "black" stroke-width = "1" />
<rect x = "280" y = "425" width="40" height="25" fill="green" stroke = "black" stroke-width = "1" />
<rect x = "320" y = "425" width="40" height="25" fill="green" stroke = "black" stroke-width = "1" />
<rect x = "360" y = "425" width="40" height="25" fill="green" stroke = "black" stroke-width = "1" />
<rect x = "400" y = "425" width="40" height="25" fill="green" stroke = "black" stroke-width = "1" />
<rect x = "440" y = "425" width="40" height="25" fill="green" stroke = "black" stroke-width = "1" />
<rect x = "480" y = "425" width="40" height="25" fill="green" stroke = "black" stroke-width = "1" />
<rect x = "520" y = "425" width="40" height="25" fill="green" stroke = "black" stroke-width = "1" />
<rect x = "560" y = "425" width="40" height="25" fill="green" stroke = "black" stroke-width = "1" />
<rect x = "0" y = "450" width="40" height="25" fill="green" stroke = "black" stroke-width = "1" />
<rect x = "40" y = "450" width="40" height="25" fill="green" stroke = "black" stroke-width = "1" />
<rect x = "80" y = "450" width="40" height="25" fill="green" stroke = "black" stroke-width = "1" />
<rect x = "120" y = "450" width="40" height="25" fill="green" stroke = "black" stroke-width = "1" />
<rect x = "160" y = "450" width="40" height="25" fill="green" stroke = "black" stroke-width = "1" />
<rect x = "200" y = "450" width="40" height="25" fill="green" stroke = "black" stroke-width = "1" />
<rect x = "240" y = "450" width="40" height="25" fill="green" stroke = "black" stroke-width = "1" />
<rect x = "280" y = "450" width="40" height="25" fill="green" stroke = "black" stroke-width = "1" />
<rect x = "320" y = "450" width="40" height="25" fill="green" stroke = "black" stroke-width = "1" />
<rect x = "360" y = "450" width="40" height="25" fill="green" stroke = "black" stroke-width = "1" />
<rect x = "400" y = "450" width="40" height="25" fill="green" stroke = "black" stroke-width = "1" />
<rect x = "440" y = "450" width="40" height="25" fill="green" stroke = "black" stroke-width = "1" />
<rect x = "480" y = "450" width="40" height="25" fill="green" stroke = "black" stroke-width = "1" />
<rect x = "520" y = "450" width="40" height="25" fill="green" stroke = "black" stroke-width = "1" />
<rect x = "560" y = "450" width="40" height="25" fill="green" stroke = "black" stroke-width = "1" />
<rect x = "0" y = "475" width="40" height="25" fill="green" stroke = "black" stroke-width = "1" />
<rect x = "40" y = "475" width="40" height="25" fill="green" stroke = "black" stroke-width = "1" />
<rect x = "80" y = "475" width="40" height="25" fill="green" stroke = "black" stroke-width = "1" />
<rect x = "120" y = "475" width="40" height="25" fill="green" stroke = "black" stroke-width = "1" />
<rect x = "160" y = "475" width="40" height="25" fill="green" stroke = "black" stroke-width = "1" />
<rect x = "200" y = "475" width="40" height="25" fill="green" stroke = "black" stroke-width = "1" />
<rect x = "240" y = "475" width="40" height="25" fill="green" stroke = "black" stroke-width = "1" />
<rect x = "280" y = "475" width="40" height="25" fill="green" stroke = "black" stroke-width = "1" />
<rect x = "320" y = "475" width="40" height="25" fill="green" stroke = "black" stroke-width = "1" />
<rect x = "360" y = "475" width="40" height="25" fill="green" stroke = "black" stroke-width = "1" />
<rect x = "400" y = "475" width="40" height="25" fill="green" stroke = "black" stroke-width = "1" />
<rect x = "440" y = "475" width="40" height="25" fill="green" stroke = "black" stroke-width = "1" />
<rect x = "480" y = "475" width="40" height="25" fill="green" stroke = "black" stroke-width = "1" />
<rect x = "520" y = "475" width="40" height="25" fill="green" stroke = "black" stroke-width = "1" />
<rect x = "560" y = "475" width="40" height="25" fill="green" stroke = "black" stroke-width = "1" />
</svg>