<svg version = "1.1" baseProfile = "full" width = "1000" height = "1000"  xmlns="http://www.w3.org/2000/svg">
<rect x = "0" y = "0" width="500" height="200" fill="red" stroke = "black" stroke-width = "1" />
<polygon fill="green" points = "0,0 17.5,30.3109 35,0" stroke = "black" stroke-width = "1" />
<polygon fill="green" points = "35,0 17.5,30.3109 52.5,30.3109" stroke = "black" stroke-width = "1" />
<polygon fill="green" points = "35,0 52.5,30.3109 70,0" stroke = "black" stroke-width = "1" />
<polygon fill="green" points = "70,0 52.5,30.3109 87.5,30.3109" stroke = "black" stroke-width = "1" />
<polygon fill="green" points = "70,0 87.5,30.3109 105,0" stroke = "black" stroke-width = "1" />
<polygon fill="green" points = "105,0 87.5,30.3109 122.5,30.3109" stroke = "black" stroke-width = "1" />
<polygon fill="green" points = "105,0 122.5,30.3109 140,0" stroke = "black" stroke-width = "1" />
<polygon fill="green" points = "140,0 122.5,30.3109 157.5,30.3109" stroke = "black" stroke-width = "1" />
<polygon fill="green" points = "140,0 157.5,30.3109 175,0" stroke = "black" stroke-width = "1" />
<polygon fill="green" points = "175,0 157.5,30.3109 192.5,30.3109" stroke = "black" stroke-width = "1" />
<polygon fill="green" points = "175,0 192.5,30.3109 210,0" stroke = "black" stroke-width = "1" />
<polygon fill="green" points = "210,0 192.5,30.3109 227.5,30.3109" stroke = "black" stroke-width = "1" />
<polygon fill="green" points = "210,0 227.5,30.3109 245,0" stroke = "black" stroke-width = "1" />
<polygon fill="green" points = "245,0 227.5,30.3109 262.5,30.3109" stroke = "black" stroke-width = "1" />
<polygon fill="green" points = "245,0 262.5,30.3109 280,0" stroke = "black" stroke-width = "1" />
<polygon fill="green" points = "280,0 262.5,30.3109 297.5,30.3109" stroke = "black" stroke-width = "1" />
<polygon fill="green" points = "280,0 297.5,30.3109 315,0" stroke = "black" stroke-width = "1" />
<polygon fill="green" points = "315,0 297.5,30.3109 332.5,30.3109" stroke = "black" stroke-width = "1" />
<polygon fill="green" points = "315,0 332.5,30.3109 350,0" stroke = "black" stroke-width = "1" />
<polygon fill="green" points = "350,0 332.5,30.3109 367.5,30.3109" stroke = "black" stroke-width = "1" />
<polygon fill="green" points = "350,0 367.5,30.3109 385,0" stroke = "black" stroke-width = "1" />
<polygon fill="green" points = "385,0 367.5,30.3109 402.5,30.3109" stroke = "black" stroke-width = "1" />
<polygon fill="green" points = "385,0 402.5,30.3109 420,0" stroke = "black" stroke-width = "1" />
<polygon fill="green" points = "420,0 402.5,30.3109 437.5,30.3109" stroke = "black" stroke-width = "1" />
<polygon fill="green" points = "420,0 437.5,30.3109 455,0" stroke = "black" stroke-width = "1" />
<polygon fill="green" points = "455,0 437.5,30.3109 472.5,30.3109" stroke = "black" stroke-width = "1" />
<polygon fill="green" points = "455,0 472.5,30.3109 490,0" stroke = "black" stroke-width = "1" />
<polygon fill="green" points = "490,0 472.5,30.3109 507.5,30.3109" stroke = "black" stroke-width = "1" />
<polygon fill="green" points = "0,30.3109 17.5,60.6218 35,30.3109" stroke = "black" stroke-width = "1" />
<polygon fill="green" points = "35,30.3109 17.5,60.6218 52.5,60.6218" stroke = "black" stroke-width = "1" />
<polygon fill="green" points = "35,30.3109 52.5,60.6218 70,30.3109" stroke = "black" stroke-width = "1" />
<polygon fill="green" points = "70,30.3109 52.5,60.6218 87.5,60.6218" stroke = "black" stroke-width = "1" />
<polygon fill="green" points = "70,30.3109 87.5,60.6218 105,30.3109" stroke = "black" stroke-width = "1" />
<polygon fill="green" points = "105,30.3109 87.5,60.6218 122.5,60.6218" stroke = "black" stroke-width = "1" />
<polygon fill="green" points = "105,30.3109 122.5,60.6218 140,30.3109" stroke = "black" stroke-width = "1" />
<polygon fill="green" points = "140,30.3109 122.5,60.6218 157.5,60.6218" stroke = "black" stroke-width = "1" />
<polygon fill="green" points = "140,30.3109 157.5,60.6218 175,30.3109" stroke = "black" stroke-width = "1" />
<polygon fill="green" points = "175,30.3109 157.5,60.6218 192.5,60.6218" stroke = "black" stroke-width = "1" />
<polygon fill="green" points = "175,30.3109 192.5,60.6218 210,30.3109" stroke = "black" stroke-width = "1" />
<polygon fill="green" points = "210,30.3109 192.5,60.6218 227.5,60.6218" stroke = "black" stroke-width = "1" />
<polygon fill="green" points = "210,30.3109 227.5,60.6218 245,30.3109" stroke = "black" stroke-width = "1" />
<polygon fill="green" points = "245,30.3109 227.5,60.6218 262.5,60.6218" stroke = "black" stroke-width = "1" />
<polygon fill="green" points = "245,30.3109 262.5,60.6218 280,30.3109" stroke = "black" stroke-width = "1" />
<polygon fill="green" points = "280,30.3109 262.5,60.6218 297.5,60.6218" stroke = "black" stroke-width = "1" />
<polygon fill="green" points = "280,30.3109 297.5,60.6218 315,30.3109" stroke = "black" stroke-width = "1" />
<polygon fill="green" points = "315,30.3109 297.5,60.6218 332.5,60.6218" stroke = "black" stroke-width = "1" />
<polygon fill="green" points = "315,30.3109 332.5,60.6218 350,30.3109" stroke = "black" stroke-width = "1" />
<polygon fill="green" points = "350,30.3109 332.5,60.6218 367.5,60.6218" stroke = "black" stroke-width = "1" />
<polygon fill="green" points = "350,30.3109 367.5,60.6218 385,30.3109" stroke = "black" stroke-width = "1" />
<polygon fill="green" points = "385,30.3109 367.5,60.6218 402.5,60.6218" stroke = "black" stroke-width = "1" />
<polygon fill="green" points = "385,30.3109 402.5,60.6218 420,30.3109" stroke = "black" stroke-width = "1" />
<polygon fill="green" points = "420,30.3109 402.5,60.6218 437.5,60.6218" stroke = "black" stroke-width = "1" />
<polygon fill="green" points = "420,30.3109 437.5,60.6218 455,30.3109" stroke = "black" stroke-width = "1" />
<polygon fill="green" points = "455,30.3109 437.5,60.6218 472.5,60.6218" stroke = "black" stroke-width = "1" />
<polygon fill="green" points = "455,30.3109 472.5,60.6218 490,30.3109" stroke = "black" stroke-width = "1" />
<polygon fill="green" points = "490,30.3109 472.5,60.6218 507.5,60.6218" stroke = "black" stroke-width = "1" />
<polygon fill="green" points = "0,60.6218 17.5,90.9327 35,60.6218" stroke = "black" stroke-width = "1" />
<polygon fill="green" points = "35,60.6218 17.5,90.9327 52.5,90.9327" stroke = "black" stroke-width = "1" />
<polygon fill="green" points = "35,60.6218 52.5,90.9327 70,60.6218" stroke = "black" stroke-width = "1" />
<polygon fill="green" points = "70,60.6218 52.5,90.9327 87.5,90.9327" stroke = "black" stroke-width = "1" />
<polygon fill="green" points = "70,60.6218 87.5,90.9327 105,60.6218" stroke = "black" stroke-width = "1" />
<polygon fill="green" points = "105,60.6218 87.5,90.9327 122.5,90.9327" stroke = "black" stroke-width = "1" />
<polygon fill="green" points = "105,60.6218 122.5,90.9327 140,60.6218" stroke = "black" stroke-width = "1" />
<polygon fill="green" points = "140,60.6218 122.5,90.9327 157.5,90.9327" stroke = "black" stroke-width = "1" />
<polygon fill="green" points = "140,60.6218 157.5,90.9327 175,60.6218" stroke = "black" stroke-width = "1" />
<polygon fill="green" points = "175,60.6218 157.5,90.9327 192.5,90.9327" stroke = "black" stroke-width = "1" />
<polygon fill="green" points = "175,60.6218 192.5,90.9327 210,60.6218" stroke = "black" stroke-width = "1" />
<polygon fill="green" points = "210,60.6218 192.5,90.9327 227.5,90.9327" stroke = "black" stroke-width = "1" />
<polygon fill="green" points = "210,60.6218 227.5,90.9327 245,60.6218" stroke = "black" stroke-width = "1" />
<polygon fill="green" points = "245,60.6218 227.5,90.9327 262.5,90.9327" stroke = "black" stroke-width = "1" />
<polygon fill="green" points = "245,60.6218 262.5,90.9327 280,60.6218" stroke = "black" stroke-width = "1" />
<polygon fill="green" points = "280,60.6218 262.5,90.9327 297.5,90.9327" stroke = "black" stroke-width = "1" />
<polygon fill="green" points = "280,60.6218 297.5,90.9327 315,60.6218" stroke = "black" stroke-width = "1" />
<polygon fill="green" points = "315,60.6218 297.5,90.9327 332.5,90.9327" stroke = "black" stroke-width = "1" />
<polygon fill="green" points = "315,60.6218 332.5,90.9327 350,60.6218" stroke = "black" stroke-width = "1" />
<polygon fill="green" points = "350,60.6218 332.5,90.9327 367.5,90.9327" stroke = "black" stroke-width = "1" />
<polygon fill="green" points = "350,60.6218 367.5,90.9327 385,60.6218" stroke = "black" stroke-width = "1" />
<polygon fill="green" points = "385,60.6218 367.5,90.9327 402.5,90.9327" stroke = "black" stroke-width = "1" />
<polygon fill="green" points = "385,60.6218 402.5,90.9327 420,60.6218" stroke = "black" stroke-width = "1" />
<polygon fill="green" points = "420,60.6218 402.5,90.9327 437.5,90.9327" stroke = "black" stroke-width = "1" />
<polygon fill="green" points = "420,60.6218 437.5,90.9327 455,60.6218" stroke = "black" stroke-width = "1" />
<polygon fill="green" points = "455,60.6218 437.5,90.9327 472.5,90.9327" stroke = "black" stroke-width = "1" />
<polygon fill="green" points = "455,60.6218 472.5,90.9327 490,60.6218" stroke = "black" stroke-width = "1" />
<polygon fill="green" points = "490,60.6218 472.5,90.9327 507.5,90.9327" stroke = "black" stroke-width = "1" />
<polygon fill="green" points = "0,90.9327 17.5,121.244 35,90.9327" stroke = "black" stroke-width = "1" />
<polygon fill="green" points = "35,90.9327 17.5,121.244 52.5,121.244" stroke = "black" stroke-width = "1" />
<polygon fill="green" points = "35,90.9327 52.5,121.244 70,90.9327" stroke = "black" stroke-width = "1" />
<polygon fill="green" points = "70,90.9327 52.5,121.244 87.5,121.244" stroke = "black" stroke-width = "1" />
<polygon fill="green" points = "70,90.9327 87.5,121.244 105,90.9327" stroke = "black" stroke-width = "1" />
<polygon fill="green" points = "105,90.9327 87.5,121.244 122.5,121.244" stroke = "black" stroke-width = "1" />
<polygon fill="green" points = "105,90.9327 122.5,121.244 140,90.9327" stroke = "black" stroke-width = "1" />
<polygon fill="green" points = "140,90.9327 122.5,121.244 157.5,121.244" stroke = "black" stroke-width = "1" />
<polygon fill="green" points = "140,90.9327 157.5,121.244 175,90.9327" stroke = "black" stroke-width = "1" />
<polygon fill="green" points = "175,90.9327 157.5,121.244 192.5,121.244" stroke = "black" stroke-width = "1" />
<polygon fill="green" points = "175,90.9327 192.5,121.244 210,90.9327" stroke = "black" stroke-width = "1" />
<polygon fill="green" points = "210,90.9327 192.5,121.244 227.5,121.244" stroke = "black" stroke-width = "1" />
<polygon fill="green" points = "210,90.9327 227.5,121.244 245,90.9327" stroke = "black" stroke-width = "1" />
<polygon fill="green" points = "245,90.9327 227.5,121.244 262.5,121.244" stroke = "black" stroke-width = "1" />
<polygon fill="green" points = "245,90.9327 262.5,121.244 280,90.9327" stroke = "black" stroke-width = "1" />
<polygon fill="green" points = "280,90.9327 262.5,121.244 297.5,121.244" stroke = "black" stroke-width = "1" />
<polygon fill="green" points = "280,90.9327 297.5,121.244 315,90.9327" stroke = "black" stroke-width = "1" />
<polygon fill="green" points = "315,90.9327 297.5,121.244 332.5,121.244" stroke = "black" stroke-width = "1" />
<polygon fill="green" points = "315,90.9327 332.5,121.244 350,90.9327" stroke = "black" stroke-width = "1" />
<polygon fill="green" points = "350,90.9327 332.5,121.244 367.5,121.244" stroke = "black" stroke-width = "1" />
<polygon fill="green" points = "350,90.9327 367.5,121.244 385,90.9327" stroke = "black" stroke-width = "1" />
<polygon fill="green" points = "385,90.9327 367.5,121.244 402.5,121.244" stroke = "black" stroke-width = "1" />
<polygon fill="green" points = "385,90.9327 402.5,121.244 420,90.9327" stroke = "black" stroke-width = "1" />
<polygon fill="green" points = "420,90.9327 402.5,121.244 437.5,121.244" stroke = "black" stroke-width = "1" />
<polygon fill="green" points = "420,90.9327 437.5,121.244 455,90.9327" stroke = "black" stroke-width = "1" />
<polygon fill="green" points = "455,90.9327 437.5,121.244 472.5,121.244" stroke = "black" stroke-width = "1" />
<polygon fill="green" points = "455,90.9327 472.5,121.244 490,90.9327" stroke = "black" stroke-width = "1" />
<polygon fill="green" points = "490,90.9327 472.5,121.244 507.5,121.244" stroke = "black" stroke-width = "1" />
<polygon fill="green" points = "0,121.244 17.5,151.554 35,121.244" stroke = "black" stroke-width = "1" />
<polygon fill="green" points = "35,121.244 17.5,151.554 52.5,151.554" stroke = "black" stroke-width = "1" />
<polygon fill="green" points = "35,121.244 52.5,151.554 70,121.244" stroke = "black" stroke-width = "1" />
<polygon fill="green" points = "70,121.244 52.5,151.554 87.5,151.554" stroke = "black" stroke-width = "1" />
<polygon fill="green" points = "70,121.244 87.5,151.554 105,121.244" stroke = "black" stroke-width = "1" />
<polygon fill="green" points = "105,121.244 87.5,151.554 122.5,151.554" stroke = "black" stroke-width = "1" />
<polygon fill="green" points = "105,121.244 122.5,151.554 140,121.244" stroke = "black" stroke-width = "1" />
<polygon fill="green" points = "140,121.244 122.5,151.554 157.5,151.554" stroke = "black" stroke-width = "1" />
<polygon fill="green" points = "140,121.244 157.5,151.554 175,121.244" stroke = "black" stroke-width = "1" />
<polygon fill="green" points = "175,121.244 157.5,151.554 192.5,151.554" stroke = "black" stroke-width = "1" />
<polygon fill="green" points = "175,121.244 192.5,151.554 210,121.244" stroke = "black" stroke-width = "1" />
<polygon fill="green" points = "210,121.244 192.5,151.554 227.5,151.554" stroke = "black" stroke-width = "1" />
<polygon fill="green" points = "210,121.244 227.5,151.554 245,121.244" stroke = "black" stroke-width = "1" />
<polygon fill="green" points = "245,121.244 227.5,151.554 262.5,151.554" stroke = "black" stroke-width = "1" />
<polygon fill="green" points = "245,121.244 262.5,151.554 280,121.244" stroke = "black" stroke-width = "1" />
<polygon fill="green" points = "280,121.244 262.5,151.554 297.5,151.554" stroke = "black" stroke-width = "1" />
<polygon fill="green" points = "280,121.244 297.5,151.554 315,121.244" stroke = "black" stroke-width = "1" />
<polygon fill="green" points = "315,121.244 297.5,151.554 332.5,151.554" stroke = "black" stroke-width = "1" />
<polygon fill="green" points = "315,121.244 332.5,151.554 350,121.244" stroke = "black" stroke-width = "1" />
<polygon fill="green" points = "350,121.244 332.5,151.554 367.5,151.554" stroke = "black" stroke-width = "1" />
<polygon fill="green" points = "350,121.244 367.5,151.554 385,121.244" stroke = "black" stroke-width = "1" />
<polygon fill="green" points = "385,121.244 367.5,151.554 402.5,151.554" stroke = "black" stroke-width = "1" />
<polygon fill="green" points = "385,121.244 402.5,151.554 420,121.244" stroke = "black" stroke-width = "1" />
<polygon fill="green" points = "420,121.244 402.5,151.554 437.5,151.554" stroke = "black" stroke-width = "1" />
<polygon fill="green" points = "420,121.244 437.5,151.554 455,121.244" stroke = "black" stroke-width = "1" />
<polygon fill="green" points = "455,121.244 437.5,151.554 472.5,151.554" stroke = "black" stroke-width = "1" />
<polygon fill="green" points = "455,121.244 472.5,151.554 490,121.244" stroke = "black" stroke-width = "1" />
<polygon fill="green" points = "490,121.244 472.5,151.554 507.5,151.554" stroke = "black" stroke-width = "1" />
<polygon fill="green" points = "0,151.554 17.5,181.865 35,151.554" stroke = "black" stroke-width = "1" />
<polygon fill="green" points = "35,151.554 17.5,181.865 52.5,181.865" stroke = "black" stroke-width = "1" />
<polygon fill="green" points = "35,151.554 52.5,181.865 70,151.554" stroke = "black" stroke-width = "1" />
<polygon fill="green" points = "70,151.554 52.5,181.865 87.5,181.865" stroke = "black" stroke-width = "1" />
<polygon fill="green" points = "70,151.554 87.5,181.865 105,151.554" stroke = "black" stroke-width = "1" />
<polygon fill="green" points = "105,151.554 87.5,181.865 122.5,181.865" stroke = "black" stroke-width = "1" />
<polygon fill="green" points = "105,151.554 122.5,181.865 140,151.554" stroke = "black" stroke-width = "1" />
<polygon fill="green" points = "140,151.554 122.5,181.865 157.5,181.865" stroke = "black" stroke-width = "1" />
<polygon fill="green" points = "140,151.554 157.5,181.865 175,151.554" stroke = "black" stroke-width = "1" />
<polygon fill="green" points = "175,151.554 157.5,181.865 192.5,181.865" stroke = "black" stroke-width = "1" />
<polygon fill="green" points = "175,151.554 192.5,181.865 210,151.554" stroke = "black" stroke-width = "1" />
<polygon fill="green" points = "210,151.554 192.5,181.865 227.5,181.865" stroke = "black" stroke-width = "1" />
<polygon fill="green" points = "210,151.554 227.5,181.865 245,151.554" stroke = "black" stroke-width = "1" />
<polygon fill="green" points = "245,151.554 227.5,181.865 262.5,181.865" stroke = "black" stroke-width = "1" />
<polygon fill="green" points = "245,151.554 262.5,181.865 280,151.554" stroke = "black" stroke-width = "1" />
<polygon fill="green" points = "280,151.554 262.5,181.865 297.5,181.865" stroke = "black" stroke-width = "1" />
<polygon fill="green" points = "280,151.554 297.5,181.865 315,151.554" stroke = "black" stroke-width = "1" />
<polygon fill="green" points = "315,151.554 297.5,181.865 332.5,181.865" stroke = "black" stroke-width = "1" />
<polygon fill="green" points = "315,151.554 332.5,181.865 350,151.554" stroke = "black" stroke-width = "1" />
<polygon fill="green" points = "350,151.554 332.5,181.865 367.5,181.865" stroke = "black" stroke-width = "1" />
<polygon fill="green" points = "350,151.554 367.5,181.865 385,151.554" stroke = "black" stroke-width = "1" />
<polygon fill="green" points = "385,151.554 367.5,181.865 402.5,181.865" stroke = "black" stroke-width = "1" />
<polygon fill="green" points = "385,151.554 402.5,181.865 420,151.554" stroke = "black" stroke-width = "1" />
<polygon fill="green" points = "420,151.554 402.5,181.865 437.5,181.865" stroke = "black" stroke-width = "1" />
<polygon fill="green" points = "420,151.554 437.5,181.865 455,151.554" stroke = "black" stroke-width = "1" />
<polygon fill="green" points = "455,151.554 437.5,181.865 472.5,181.865" stroke = "black" stroke-width = "1" />
<polygon fill="green" points = "455,151.554 472.5,181.865 490,151.554" stroke = "black" stroke-width = "1" />
<polygon fill="green" points = "490,151.554 472.5,181.865 507.5,181.865" stroke = "black" stroke-width = "1" />
</svg>