<svg version = "1.1" baseProfile = "full" width = "1000" height = "1000"  xmlns="http://www.w3.org/2000/svg">
<polygon fill="red" points = "0,0 0,433.013 500,433.013" stroke = "black" stroke-width = "1" />
<rect x = "14.4338" y = "408.013" width="40" height="25" fill="green" stroke = "black" stroke-width = "1" />
<rect x = "54.4338" y = "408.013" width="40" height="25" fill="green" stroke = "black" stroke-width = "1" />
<rect x = "94.4338" y = "408.013" width="40" height="25" fill="green" stroke = "black" stroke-width = "1" />
<rect x = "134.434" y = "408.013" width="40" height="25" fill="green" stroke = "black" stroke-width = "1" />
<rect x = "174.434" y = "408.013" width="40" height="25" fill="green" stroke = "black" stroke-width = "1" />
<rect x = "214.434" y = "408.013" width="40" height="25" fill="green" stroke = "black" stroke-width = "1" />
<rect x = "254.434" y = "408.013" width="40" height="25" fill="green" stroke = "black" stroke-width = "1" />
<rect x = "294.434" y = "408.013" width="40" height="25" fill="green" stroke = "black" stroke-width = "1" />
<rect x = "334.434" y = "408.013" width="40" height="25" fill="green" stroke = "black" stroke-width = "1" />
<rect x = "374.434" y = "408.013" width="40" height="25" fill="green" stroke = "black" stroke-width = "1" />
<rect x = "414.434" y = "408.013" width="40" height="25" fill="green" stroke = "black" stroke-width = "1" />
<rect x = "454.434" y = "408.013" width="40" height="25" fill="green" stroke = "black" stroke-width = "1" />
<rect x = "27.4338" y = "383.013" width="40" height="25" fill="green" stroke = "black" stroke-width = "1" />
<rect x = "67.4338" y = "383.013" width="40" height="25" fill="green" stroke = "black" stroke-width = "1" />
<rect x = "107.434" y = "383.013" width="40" height="25" fill="green" stroke = "black" stroke-width = "1" />
<rect x = "147.434" y = "383.013" width="40" height="25" fill="green" stroke = "black" stroke-width = "1" />
<rect x = "187.434" y = "383.013" width="40" height="25" fill="green" stroke = "black" stroke-width = "1" />
<rect x = "227.434" y = "383.013" width="40" height="25" fill="green" stroke = "black" stroke-width = "1" />
<rect x = "267.434" y = "383.013" width="40" height="25" fill="green" stroke = "black" stroke-width = "1" />
<rect x = "307.434" y = "383.013" width="40" height="25" fill="green" stroke = "black" stroke-width = "1" />
<rect x = "347.434" y = "383.013" width="40" height="25" fill="green" stroke = "black" stroke-width = "1" />
<rect x = "387.434" y = "383.013" width="40" height="25" fill="green" stroke = "black" stroke-width = "1" />
<rect x = "427.434" y = "383.013" width="40" height="25" fill="green" stroke = "black" stroke-width = "1" />
<rect x = "467.434" y = "383.013" width="40" height="25" fill="green" stroke = "black" stroke-width = "1" />
<rect x = "40.4338" y = "358.013" width="40" height="25" fill="green" stroke = "black" stroke-width = "1" />
<rect x = "80.4338" y = "358.013" width="40" height="25" fill="green" stroke = "black" stroke-width = "1" />
<rect x = "120.434" y = "358.013" width="40" height="25" fill="green" stroke = "black" stroke-width = "1" />
<rect x = "160.434" y = "358.013" width="40" height="25" fill="green" stroke = "black" stroke-width = "1" />
<rect x = "200.434" y = "358.013" width="40" height="25" fill="green" stroke = "black" stroke-width = "1" />
<rect x = "240.434" y = "358.013" width="40" height="25" fill="green" stroke = "black" stroke-width = "1" />
<rect x = "280.434" y = "358.013" width="40" height="25" fill="green" stroke = "black" stroke-width = "1" />
<rect x = "320.434" y = "358.013" width="40" height="25" fill="green" stroke = "black" stroke-width = "1" />
<rect x = "360.434" y = "358.013" width="40" height="25" fill="green" stroke = "black" stroke-width = "1" />
<rect x = "400.434" y = "358.013" width="40" height="25" fill="green" stroke = "black" stroke-width = "1" />
<rect x = "440.434" y = "358.013" width="40" height="25" fill="green" stroke = "black" stroke-width = "1" />
<rect x = "53.4338" y = "333.013" width="40" height="25" fill="green" stroke = "black" stroke-width = "1" />
<rect x = "93.4338" y = "333.013" width="40" height="25" fill="green" stroke = "black" stroke-width = "1" />
<rect x = "133.434" y = "333.013" width="40" height="25" fill="green" stroke = "black" stroke-width = "1" />
<rect x = "173.434" y = "333.013" width="40" height="25" fill="green" stroke = "black" stroke-width = "1" />
<rect x = "213.434" y = "333.013" width="40" height="25" fill="green" stroke = "black" stroke-width = "1" />
<rect x = "253.434" y = "333.013" width="40" height="25" fill="green" stroke = "black" stroke-width = "1" />
<rect x = "293.434" y = "333.013" width="40" height="25" fill="green" stroke = "black" stroke-width = "1" />
<rect x = "333.434" y = "333.013" width="40" height="25" fill="green" stroke = "black" stroke-width = "1" />
<rect x = "373.434" y = "333.013" width="40" height="25" fill="green" stroke = "black" stroke-width = "1" />
<rect x = "413.434" y = "333.013" width="40" height="25" fill="green" stroke = "black" stroke-width = "1" />
<rect x = "66.4338" y = "308.013" width="40" height="25" fill="green" stroke = "black" stroke-width = "1" />
<rect x = "106.434" y = "308.013" width="40" height="25" fill="green" stroke = "black" stroke-width = "1" />
<rect x = "146.434" y = "308.013" width="40" height="25" fill="green" stroke = "black" stroke-width = "1" />
<rect x = "186.434" y = "308.013" width="40" height="25" fill="green" stroke = "black" stroke-width = "1" />
<rect x = "226.434" y = "308.013" width="40" height="25" fill="green" stroke = "black" stroke-width = "1" />
<rect x = "266.434" y = "308.013" width="40" height="25" fill="green" stroke = "black" stroke-width = "1" />
<rect x = "306.434" y = "308.013" width="40" height="25" fill="green" stroke = "black" stroke-width = "1" />
<rect x = "346.434" y = "308.013" width="40" height="25" fill="green" stroke = "black" stroke-width = "1" />
<rect x = "386.434" y = "308.013" width="40" height="25" fill="green" stroke = "black" stroke-width = "1" />
<rect x = "79.4338" y = "283.013" width="40" height="25" fill="green" stroke = "black" stroke-width = "1" />
<rect x = "119.434" y = "283.013" width="40" height="25" fill="green" stroke = "black" stroke-width = "1" />
<rect x = "159.434" y = "283.013" width="40" height="25" fill="green" stroke = "black" stroke-width = "1" />
<rect x = "199.434" y = "283.013" width="40" height="25" fill="green" stroke = "black" stroke-width = "1" />
<rect x = "239.434" y = "283.013" width="40" height="25" fill="green" stroke = "black" stroke-width = "1" />
<rect x = "279.434" y = "283.013" width="40" height="25" fill="green" stroke = "black" stroke-width = "1" />
<rect x = "319.434" y = "283.013" width="40" height="25" fill="green" stroke = "black" stroke-width = "1" />
<rect x = "359.434" y = "283.013" width="40" height="25" fill="green" stroke = "black" stroke-width = "1" />
<rect x = "399.434" y = "283.013" width="40" height="25" fill="green" stroke = "black" stroke-width = "1" />
<rect x = "92.4338" y = "258.013" width="40" height="25" fill="green" stroke = "black" stroke-width = "1" />
<rect x = "132.434" y = "258.013" width="40" height="25" fill="green" stroke = "black" stroke-width = "1" />
<rect x = "172.434" y = "258.013" width="40" height="25" fill="green" stroke = "black" stroke-width = "1" />
<rect x = "212.434" y = "258.013" width="40" height="25" fill="green" stroke = "black" stroke-width = "1" />
<rect x = "252.434" y = "258.013" width="40" height="25" fill="green" stroke = "black" stroke-width = "1" />
<rect x = "292.434" y = "258.013" width="40" height="25" fill="green" stroke = "black" stroke-width = "1" />
<rect x = "332.434" y = "258.013" width="40" height="25" fill="green" stroke = "black" stroke-width = "1" />
<rect x = "372.434" y = "258.013" width="40" height="25" fill="green" stroke = "black" stroke-width = "1" />
<rect x = "105.434" y = "233.013" width="40" height="25" fill="green" stroke = "black" stroke-width = "1" />
<rect x = "145.434" y = "233.013" width="40" height="25" fill="green" stroke = "black" stroke-width = "1" />
<rect x = "185.434" y = "233.013" width="40" height="25" fill="green" stroke = "black" stroke-width = "1" />
<rect x = "225.434" y = "233.013" width="40" height="25" fill="green" stroke = "black" stroke-width = "1" />
<rect x = "265.434" y = "233.013" width="40" height="25" fill="green" stroke = "black" stroke-width = "1" />
<rect x = "305.434" y = "233.013" width="40" height="25" fill="green" stroke = "black" stroke-width = "1" />
<rect x = "345.434" y = "233.013" width="40" height="25" fill="green" stroke = "black" stroke-width = "1" />
<rect x = "118.434" y = "208.013" width="40" height="25" fill="green" stroke = "black" stroke-width = "1" />
<rect x = "158.434" y = "208.013" width="40" height="25" fill="green" stroke = "black" stroke-width = "1" />
<rect x = "198.434" y = "208.013" width="40" height="25" fill="green" stroke = "black" stroke-width = "1" />
<rect x = "238.434" y = "208.013" width="40" height="25" fill="green" stroke = "black" stroke-width = "1" />
<rect x = "278.434" y = "208.013" width="40" height="25" fill="green" stroke = "black" stroke-width = "1" />
<rect x = "318.434" y = "208.013" width="40" height="25" fill="green" stroke = "black" stroke-width = "1" />
<rect x = "358.434" y = "208.013" width="40" height="25" fill="green" stroke = "black" stroke-width = "1" />
<rect x = "131.434" y = "183.013" width="40" height="25" fill="green" stroke = "black" stroke-width = "1" />
<rect x = "171.434" y = "183.013" width="40" height="25" fill="green" stroke = "black" stroke-width = "1" />
<rect x = "211.434" y = "183.013" width="40" height="25" fill="green" stroke = "black" stroke-width = "1" />
<rect x = "251.434" y = "183.013" width="40" height="25" fill="green" stroke = "black" stroke-width = "1" />
<rect x = "291.434" y = "183.013" width="40" height="25" fill="green" stroke = "black" stroke-width = "1" />
<rect x = "331.434" y = "183.013" width="40" height="25" fill="green" stroke = "black" stroke-width = "1" />
<rect x = "144.434" y = "158.013" width="40" height="25" fill="green" stroke = "black" stroke-width = "1" />
<rect x = "184.434" y = "158.013" width="40" height="25" fill="green" stroke = "black" stroke-width = "1" />
<rect x = "224.434" y = "158.013" width="40" height="25" fill="green" stroke = "black" stroke-width = "1" />
<rect x = "264.434" y = "158.013" width="40" height="25" fill="green" stroke = "black" stroke-width = "1" />
<rect x = "304.434" y = "158.013" width="40" height="25" fill="green" stroke = "black" stroke-width = "1" />
<rect x = "157.434" y = "133.013" width="40" height="25" fill="green" stroke = "black" stroke-width = "1" />
<rect x = "197.434" y = "133.013" width="40" height="25" fill="green" stroke = "black" stroke-width = "1" />
<rect x = "237.434" y = "133.013" width="40" height="25" fill="green" stroke = "black" stroke-width = "1" />
<rect x = "277.434" y = "133.013" width="40" height="25" fill="green" stroke = "black" stroke-width = "1" />
<rect x = "170.434" y = "108.013" width="40" height="25" fill="green" stroke = "black" stroke-width = "1" />
<rect x = "210.434" y = "108.013" width="40" height="25" fill="green" stroke = "black" stroke-width = "1" />
<rect x = "250.434" y = "108.013" width="40" height="25" fill="green" stroke = "black" stroke-width = "1" />
<rect x = "290.434" y = "108.013" width="40" height="25" fill="green" stroke = "black" stroke-width = "1" />
<rect x = "183.434" y = "83.0127" width="40" height="25" fill="green" stroke = "black" stroke-width = "1" />
<rect x = "223.434" y = "83.0127" width="40" height="25" fill="green" stroke = "black" stroke-width = "1" />
<rect x = "263.434" y = "83.0127" width="40" height="25" fill="green" stroke = "black" stroke-width = "1" />
<rect x = "196.434" y = "58.0127" width="40" height="25" fill="green" stroke = "black" stroke-width = "1" />
<rect x = "236.434" y = "58.0127" width="40" height="25" fill="green" stroke = "black" stroke-width = "1" />
</svg>