<svg version = "1.1" baseProfile = "full" width = "1000" height = "1000"  xmlns="http://www.w3.org/2000/svg">
<circle cx = "350" cy = "350" r="350" fill="red" stroke = "black" stroke-width = "1" />
<rect x = "53.2006" y = "164.5" width="40" height="25" fill="green" stroke = "black" stroke-width = "1" />
<rect x = "93.2006" y = "164.5" width="40" height="25" fill="green" stroke = "black" stroke-width = "1" />
<rect x = "133.201" y = "164.5" width="40" height="25" fill="green" stroke = "black" stroke-width = "1" />
<rect x = "173.201" y = "164.5" width="40" height="25" fill="green" stroke = "black" stroke-width = "1" />
<rect x = "213.201" y = "164.5" width="40" height="25" fill="green" stroke = "black" stroke-width = "1" />
<rect x = "253.201" y = "164.5" width="40" height="25" fill="green" stroke = "black" stroke-width = "1" />
<rect x = "293.201" y = "164.5" width="40" height="25" fill="green" stroke = "black" stroke-width = "1" />
<rect x = "333.201" y = "164.5" width="40" height="25" fill="green" stroke = "black" stroke-width = "1" />
<rect x = "373.201" y = "164.5" width="40" height="25" fill="green" stroke = "black" stroke-width = "1" />
<rect x = "413.201" y = "164.5" width="40" height="25" fill="green" stroke = "black" stroke-width = "1" />
<rect x = "453.201" y = "164.5" width="40" height="25" fill="green" stroke = "black" stroke-width = "1" />
<rect x = "493.201" y = "164.5" width="40" height="25" fill="green" stroke = "black" stroke-width = "1" />
<rect x = "533.201" y = "164.5" width="40" height="25" fill="green" stroke = "black" stroke-width = "1" />
<rect x = "573.201" y = "164.5" width="40" height="25" fill="green" stroke = "black" stroke-width = "1" />
<rect x = "613.201" y = "164.5" width="40" height="25" fill="green" stroke = "black" stroke-width = "1" />
<rect x = "53.2006" y = "189.5" width="40" height="25" fill="green" stroke = "black" stroke-width = "1" />
<rect x = "93.2006" y = "189.5" width="40" height="25" fill="green" stroke = "black" stroke-width = "1" />
<rect x = "133.201" y = "189.5" width="40" height="25" fill="green" stroke = "black" stroke-width = "1" />
<rect x = "173.201" y = "189.5" width="40" height="25" fill="green" stroke = "black" stroke-width = "1" />
<rect x = "213.201" y = "189.5" width="40" height="25" fill="green" stroke = "black" stroke-width = "1" />
<rect x = "253.201" y = "189.5" width="40" height="25" fill="green" stroke = "black" stroke-width = "1" />
<rect x = "293.201" y = "189.5" width="40" height="25" fill="green" stroke = "black" stroke-width = "1" />
<rect x = "333.201" y = "189.5" width="40" height="25" fill="green" stroke = "black" stroke-width = "1" />
<rect x = "373.201" y = "189.5" width="40" height="25" fill="green" stroke = "black" stroke-width = "1" />
<rect x = "413.201" y = "189.5" width="40" height="25" fill="green" stroke = "black" stroke-width = "1" />
<rect x = "453.201" y = "189.5" width="40" height="25" fill="green" stroke = "black" stroke-width = "1" />
<rect x = "493.201" y = "189.5" width="40" height="25" fill="green" stroke = "black" stroke-width = "1" />
<rect x = "533.201" y = "189.5" width="40" height="25" fill="green" stroke = "black" stroke-width = "1" />
<rect x = "573.201" y = "189.5" width="40" height="25" fill="green" stroke = "black" stroke-width = "1" />
<rect x = "613.201" y = "189.5" width="40" height="25" fill="green" stroke = "black" stroke-width = "1" />
<rect x = "53.2006" y = "214.5" width="40" height="25" fill="green" stroke = "black" stroke-width = "1" />
<rect x = "93.2006" y = "214.5" width="40" height="25" fill="green" stroke = "black" stroke-width = "1" />
<rect x = "133.201" y = "214.5" width="40" height="25" fill="green" stroke = "black" stroke-width = "1" />
<rect x = "173.201" y = "214.5" width="40" height="25" fill="green" stroke = "black" stroke-width = "1" />
<rect x = "213.201" y = "214.5" width="40" height="25" fill="green" stroke = "black" stroke-width = "1" />
<rect x = "253.201" y = "214.5" width="40" height="25" fill="green" stroke = "black" stroke-width = "1" />
<rect x = "293.201" y = "214.5" width="40" height="25" fill="green" stroke = "black" stroke-width = "1" />
<rect x = "333.201" y = "214.5" width="40" height="25" fill="green" stroke = "black" stroke-width = "1" />
<rect x = "373.201" y = "214.5" width="40" height="25" fill="green" stroke = "black" stroke-width = "1" />
<rect x = "413.201" y = "214.5" width="40" height="25" fill="green" stroke = "black" stroke-width = "1" />
<rect x = "453.201" y = "214.5" width="40" height="25" fill="green" stroke = "black" stroke-width = "1" />
<rect x = "493.201" y = "214.5" width="40" height="25" fill="green" stroke = "black" stroke-width = "1" />
<rect x = "533.201" y = "214.5" width="40" height="25" fill="green" stroke = "black" stroke-width = "1" />
<rect x = "573.201" y = "214.5" width="40" height="25" fill="green" stroke = "black" stroke-width = "1" />
<rect x = "613.201" y = "214.5" width="40" height="25" fill="green" stroke = "black" stroke-width = "1" />
<rect x = "53.2006" y = "239.5" width="40" height="25" fill="green" stroke = "black" stroke-width = "1" />
<rect x = "93.2006" y = "239.5" width="40" height="25" fill="green" stroke = "black" stroke-width = "1" />
<rect x = "133.201" y = "239.5" width="40" height="25" fill="green" stroke = "black" stroke-width = "1" />
<rect x = "173.201" y = "239.5" width="40" height="25" fill="green" stroke = "black" stroke-width = "1" />
<rect x = "213.201" y = "239.5" width="40" height="25" fill="green" stroke = "black" stroke-width = "1" />
<rect x = "253.201" y = "239.5" width="40" height="25" fill="green" stroke = "black" stroke-width = "1" />
<rect x = "293.201" y = "239.5" width="40" height="25" fill="green" stroke = "black" stroke-width = "1" />
<rect x = "333.201" y = "239.5" width="40" height="25" fill="green" stroke = "black" stroke-width = "1" />
<rect x = "373.201" y = "239.5" width="40" height="25" fill="green" stroke = "black" stroke-width = "1" />
<rect x = "413.201" y = "239.5" width="40" height="25" fill="green" stroke = "black" stroke-width = "1" />
<rect x = "453.201" y = "239.5" width="40" height="25" fill="green" stroke = "black" stroke-width = "1" />
<rect x = "493.201" y = "239.5" width="40" height="25" fill="green" stroke = "black" stroke-width = "1" />
<rect x = "533.201" y = "239.5" width="40" height="25" fill="green" stroke = "black" stroke-width = "1" />
<rect x = "573.201" y = "239.5" width="40" height="25" fill="green" stroke = "black" stroke-width = "1" />
<rect x = "613.201" y = "239.5" width="40" height="25" fill="green" stroke = "black" stroke-width = "1" />
<rect x = "53.2006" y = "264.5" width="40" height="25" fill="green" stroke = "black" stroke-width = "1" />
<rect x = "93.2006" y = "264.5" width="40" height="25" fill="green" stroke = "black" stroke-width = "1" />
<rect x = "133.201" y = "264.5" width="40" height="25" fill="green" stroke = "black" stroke-width = "1" />
<rect x = "173.201" y = "264.5" width="40" height="25" fill="green" stroke = "black" stroke-width = "1" />
<rect x = "213.201" y = "264.5" width="40" height="25" fill="green" stroke = "black" stroke-width = "1" />
<rect x = "253.201" y = "264.5" width="40" height="25" fill="green" stroke = "black" stroke-width = "1" />
<rect x = "293.201" y = "264.5" width="40" height="25" fill="green" stroke = "black" stroke-width = "1" />
<rect x = "333.201" y = "264.5" width="40" height="25" fill="green" stroke = "black" stroke-width = "1" />
<rect x = "373.201" y = "264.5" width="40" height="25" fill="green" stroke = "black" stroke-width = "1" />
<rect x = "413.201" y = "264.5" width="40" height="25" fill="green" stroke = "black" stroke-width = "1" />
<rect x = "453.201" y = "264.5" width="40" height="25" fill="green" stroke = "black" stroke-width = "1" />
<rect x = "493.201" y = "264.5" width="40" height="25" fill="green" stroke = "black" stroke-width = "1" />
<rect x = "533.201" y = "264.5" width="40" height="25" fill="green" stroke = "black" stroke-width = "1" />
<rect x = "573.201" y = "264.5" width="40" height="25" fill="green" stroke = "black" stroke-width = "1" />
<rect x = "613.201" y = "264.5" width="40" height="25" fill="green" stroke = "black" stroke-width = "1" />
<rect x = "53.2006" y = "289.5" width="40" height="25" fill="green" stroke = "black" stroke-width = "1" />
<rect x = "93.2006" y = "289.5" width="40" height="25" fill="green" stroke = "black" stroke-width = "1" />
<rect x = "133.201" y = "289.5" width="40" height="25" fill="green" stroke = "black" stroke-width = "1" />
<rect x = "173.201" y = "289.5" width="40" height="25" fill="green" stroke = "black" stroke-width = "1" />
<rect x = "213.201" y = "289.5" width="40" height="25" fill="green" stroke = "black" stroke-width = "1" />
<rect x = "253.201" y = "289.5" width="40" height="25" fill="green" stroke = "black" stroke-width = "1" />
<rect x = "293.201" y = "289.5" width="40" height="25" fill="green" stroke = "black" stroke-width = "1" />
<rect x = "333.201" y = "289.5" width="40" height="25" fill="green" stroke = "black" stroke-width = "1" />
<rect x = "373.201" y = "289.5" width="40" height="25" fill="green" stroke = "black" stroke-width = "1" />
<rect x = "413.201" y = "289.5" width="40" height="25" fill="green" stroke = "black" stroke-width = "1" />
<rect x = "453.201" y = "289.5" width="40" height="25" fill="green" stroke = "black" stroke-width = "1" />
<rect x = "493.201" y = "289.5" width="40" height="25" fill="green" stroke = "black" stroke-width = "1" />
<rect x = "533.201" y = "289.5" width="40" height="25" fill="green" stroke = "black" stroke-width = "1" />
<rect x = "573.201" y = "289.5" width="40" height="25" fill="green" stroke = "black" stroke-width = "1" />
<rect x = "613.201" y = "289.5" width="40" height="25" fill="green" stroke = "black" stroke-width = "1" />
<rect x = "53.2006" y = "314.5" width="40" height="25" fill="green" stroke = "black" stroke-width = "1" />
<rect x = "93.2006" y = "314.5" width="40" height="25" fill="green" stroke = "black" stroke-width = "1" />
<rect x = "133.201" y = "314.5" width="40" height="25" fill="green" stroke = "black" stroke-width = "1" />
<rect x = "173.201" y = "314.5" width="40" height="25" fill="green" stroke = "black" stroke-width = "1" />
<rect x = "213.201" y = "314.5" width="40" height="25" fill="green" stroke = "black" stroke-width = "1" />
<rect x = "253.201" y = "314.5" width="40" height="25" fill="green" stroke = "black" stroke-width = "1" />
<rect x = "293.201" y = "314.5" width="40" height="25" fill="green" stroke = "black" stroke-width = "1" />
<rect x = "333.201" y = "314.5" width="40" height="25" fill="green" stroke = "black" stroke-width = "1" />
<rect x = "373.201" y = "314.5" width="40" height="25" fill="green" stroke = "black" stroke-width = "1" />
<rect x = "413.201" y = "314.5" width="40" height="25" fill="green" stroke = "black" stroke-width = "1" />
<rect x = "453.201" y = "314.5" width="40" height="25" fill="green" stroke = "black" stroke-width = "1" />
<rect x = "493.201" y = "314.5" width="40" height="25" fill="green" stroke = "black" stroke-width = "1" />
<rect x = "533.201" y = "314.5" width="40" height="25" fill="green" stroke = "black" stroke-width = "1" />
<rect x = "573.201" y = "314.5" width="40" height="25" fill="green" stroke = "black" stroke-width = "1" />
<rect x = "613.201" y = "314.5" width="40" height="25" fill="green" stroke = "black" stroke-width = "1" />
<rect x = "53.2006" y = "339.5" width="40" height="25" fill="green" stroke = "black" stroke-width = "1" />
<rect x = "93.2006" y = "339.5" width="40" height="25" fill="green" stroke = "black" stroke-width = "1" />
<rect x = "133.201" y = "339.5" width="40" height="25" fill="green" stroke = "black" stroke-width = "1" />
<rect x = "173.201" y = "339.5" width="40" height="25" fill="green" stroke = "black" stroke-width = "1" />
<rect x = "213.201" y = "339.5" width="40" height="25" fill="green" stroke = "black" stroke-width = "1" />
<rect x = "253.201" y = "339.5" width="40" height="25" fill="green" stroke = "black" stroke-width = "1" />
<rect x = "293.201" y = "339.5" width="40" height="25" fill="green" stroke = "black" stroke-width = "1" />
<rect x = "333.201" y = "339.5" width="40" height="25" fill="green" stroke = "black" stroke-width = "1" />
<rect x = "373.201" y = "339.5" width="40" height="25" fill="green" stroke = "black" stroke-width = "1" />
<rect x = "413.201" y = "339.5" width="40" height="25" fill="green" stroke = "black" stroke-width = "1" />
<rect x = "453.201" y = "339.5" width="40" height="25" fill="green" stroke = "black" stroke-width = "1" />
<rect x = "493.201" y = "339.5" width="40" height="25" fill="green" stroke = "black" stroke-width = "1" />
<rect x = "533.201" y = "339.5" width="40" height="25" fill="green" stroke = "black" stroke-width = "1" />
<rect x = "573.201" y = "339.5" width="40" height="25" fill="green" stroke = "black" stroke-width = "1" />
<rect x = "613.201" y = "339.5" width="40" height="25" fill="green" stroke = "black" stroke-width = "1" />
<rect x = "53.2006" y = "364.5" width="40" height="25" fill="green" stroke = "black" stroke-width = "1" />
<rect x = "93.2006" y = "364.5" width="40" height="25" fill="green" stroke = "black" stroke-width = "1" />
<rect x = "133.201" y = "364.5" width="40" height="25" fill="green" stroke = "black" stroke-width = "1" />
<rect x = "173.201" y = "364.5" width="40" height="25" fill="green" stroke = "black" stroke-width = "1" />
<rect x = "213.201" y = "364.5" width="40" height="25" fill="green" stroke = "black" stroke-width = "1" />
<rect x = "253.201" y = "364.5" width="40" height="25" fill="green" stroke = "black" stroke-width = "1" />
<rect x = "293.201" y = "364.5" width="40" height="25" fill="green" stroke = "black" stroke-width = "1" />
<rect x = "333.201" y = "364.5" width="40" height="25" fill="green" stroke = "black" stroke-width = "1" />
<rect x = "373.201" y = "364.5" width="40" height="25" fill="green" stroke = "black" stroke-width = "1" />
<rect x = "413.201" y = "364.5" width="40" height="25" fill="green" stroke = "black" stroke-width = "1" />
<rect x = "453.201" y = "364.5" width="40" height="25" fill="green" stroke = "black" stroke-width = "1" />
<rect x = "493.201" y = "364.5" width="40" height="25" fill="green" stroke = "black" stroke-width = "1" />
<rect x = "533.201" y = "364.5" width="40" height="25" fill="green" stroke = "black" stroke-width = "1" />
<rect x = "573.201" y = "364.5" width="40" height="25" fill="green" stroke = "black" stroke-width = "1" />
<rect x = "613.201" y = "364.5" width="40" height="25" fill="green" stroke = "black" stroke-width = "1" />
<rect x = "53.2006" y = "389.5" width="40" height="25" fill="green" stroke = "black" stroke-width = "1" />
<rect x = "93.2006" y = "389.5" width="40" height="25" fill="green" stroke = "black" stroke-width = "1" />
<rect x = "133.201" y = "389.5" width="40" height="25" fill="green" stroke = "black" stroke-width = "1" />
<rect x = "173.201" y = "389.5" width="40" height="25" fill="green" stroke = "black" stroke-width = "1" />
<rect x = "213.201" y = "389.5" width="40" height="25" fill="green" stroke = "black" stroke-width = "1" />
<rect x = "253.201" y = "389.5" width="40" height="25" fill="green" stroke = "black" stroke-width = "1" />
<rect x = "293.201" y = "389.5" width="40" height="25" fill="green" stroke = "black" stroke-width = "1" />
<rect x = "333.201" y = "389.5" width="40" height="25" fill="green" stroke = "black" stroke-width = "1" />
<rect x = "373.201" y = "389.5" width="40" height="25" fill="green" stroke = "black" stroke-width = "1" />
<rect x = "413.201" y = "389.5" width="40" height="25" fill="green" stroke = "black" stroke-width = "1" />
<rect x = "453.201" y = "389.5" width="40" height="25" fill="green" stroke = "black" stroke-width = "1" />
<rect x = "493.201" y = "389.5" width="40" height="25" fill="green" stroke = "black" stroke-width = "1" />
<rect x = "533.201" y = "389.5" width="40" height="25" fill="green" stroke = "black" stroke-width = "1" />
<rect x = "573.201" y = "389.5" width="40" height="25" fill="green" stroke = "black" stroke-width = "1" />
<rect x = "613.201" y = "389.5" width="40" height="25" fill="green" stroke = "black" stroke-width = "1" />
<rect x = "53.2006" y = "414.5" width="40" height="25" fill="green" stroke = "black" stroke-width = "1" />
<rect x = "93.2006" y = "414.5" width="40" height="25" fill="green" stroke = "black" stroke-width = "1" />
<rect x = "133.201" y = "414.5" width="40" height="25" fill="green" stroke = "black" stroke-width = "1" />
<rect x = "173.201" y = "414.5" width="40" height="25" fill="green" stroke = "black" stroke-width = "1" />
<rect x = "213.201" y = "414.5" width="40" height="25" fill="green" stroke = "black" stroke-width = "1" />
<rect x = "253.201" y = "414.5" width="40" height="25" fill="green" stroke = "black" stroke-width = "1" />
<rect x = "293.201" y = "414.5" width="40" height="25" fill="green" stroke = "black" stroke-width = "1" />
<rect x = "333.201" y = "414.5" width="40" height="25" fill="green" stroke = "black" stroke-width = "1" />
<rect x = "373.201" y = "414.5" width="40" height="25" fill="green" stroke = "black" stroke-width = "1" />
<rect x = "413.201" y = "414.5" width="40" height="25" fill="green" stroke = "black" stroke-width = "1" />
<rect x = "453.201" y = "414.5" width="40" height="25" fill="green" stroke = "black" stroke-width = "1" />
<rect x = "493.201" y = "414.5" width="40" height="25" fill="green" stroke = "black" stroke-width = "1" />
<rect x = "533.201" y = "414.5" width="40" height="25" fill="green" stroke = "black" stroke-width = "1" />
<rect x = "573.201" y = "414.5" width="40" height="25" fill="green" stroke = "black" stroke-width = "1" />
<rect x = "613.201" y = "414.5" width="40" height="25" fill="green" stroke = "black" stroke-width = "1" />
<rect x = "53.2006" y = "439.5" width="40" height="25" fill="green" stroke = "black" stroke-width = "1" />
<rect x = "93.2006" y = "439.5" width="40" height="25" fill="green" stroke = "black" stroke-width = "1" />
<rect x = "133.201" y = "439.5" width="40" height="25" fill="green" stroke = "black" stroke-width = "1" />
<rect x = "173.201" y = "439.5" width="40" height="25" fill="green" stroke = "black" stroke-width = "1" />
<rect x = "213.201" y = "439.5" width="40" height="25" fill="green" stroke = "black" stroke-width = "1" />
<rect x = "253.201" y = "439.5" width="40" height="25" fill="green" stroke = "black" stroke-width = "1" />
<rect x = "293.201" y = "439.5" width="40" height="25" fill="green" stroke = "black" stroke-width = "1" />
<rect x = "333.201" y = "439.5" width="40" height="25" fill="green" stroke = "black" stroke-width = "1" />
<rect x = "373.201" y = "439.5" width="40" height="25" fill="green" stroke = "black" stroke-width = "1" />
<rect x = "413.201" y = "439.5" width="40" height="25" fill="green" stroke = "black" stroke-width = "1" />
<rect x = "453.201" y = "439.5" width="40" height="25" fill="green" stroke = "black" stroke-width = "1" />
<rect x = "493.201" y = "439.5" width="40" height="25" fill="green" stroke = "black" stroke-width = "1" />
<rect x = "533.201" y = "439.5" width="40" height="25" fill="green" stroke = "black" stroke-width = "1" />
<rect x = "573.201" y = "439.5" width="40" height="25" fill="green" stroke = "black" stroke-width = "1" />
<rect x = "613.201" y = "439.5" width="40" height="25" fill="green" stroke = "black" stroke-width = "1" />
<rect x = "53.2006" y = "464.5" width="40" height="25" fill="green" stroke = "black" stroke-width = "1" />
<rect x = "93.2006" y = "464.5" width="40" height="25" fill="green" stroke = "black" stroke-width = "1" />
<rect x = "133.201" y = "464.5" width="40" height="25" fill="green" stroke = "black" stroke-width = "1" />
<rect x = "173.201" y = "464.5" width="40" height="25" fill="green" stroke = "black" stroke-width = "1" />
<rect x = "213.201" y = "464.5" width="40" height="25" fill="green" stroke = "black" stroke-width = "1" />
<rect x = "253.201" y = "464.5" width="40" height="25" fill="green" stroke = "black" stroke-width = "1" />
<rect x = "293.201" y = "464.5" width="40" height="25" fill="green" stroke = "black" stroke-width = "1" />
<rect x = "333.201" y = "464.5" width="40" height="25" fill="green" stroke = "black" stroke-width = "1" />
<rect x = "373.201" y = "464.5" width="40" height="25" fill="green" stroke = "black" stroke-width = "1" />
<rect x = "413.201" y = "464.5" width="40" height="25" fill="green" stroke = "black" stroke-width = "1" />
<rect x = "453.201" y = "464.5" width="40" height="25" fill="green" stroke = "black" stroke-width = "1" />
<rect x = "493.201" y = "464.5" width="40" height="25" fill="green" stroke = "black" stroke-width = "1" />
<rect x = "533.201" y = "464.5" width="40" height="25" fill="green" stroke = "black" stroke-width = "1" />
<rect x = "573.201" y = "464.5" width="40" height="25" fill="green" stroke = "black" stroke-width = "1" />
<rect x = "613.201" y = "464.5" width="40" height="25" fill="green" stroke = "black" stroke-width = "1" />
<rect x = "53.2006" y = "489.5" width="40" height="25" fill="green" stroke = "black" stroke-width = "1" />
<rect x = "93.2006" y = "489.5" width="40" height="25" fill="green" stroke = "black" stroke-width = "1" />
<rect x = "133.201" y = "489.5" width="40" height="25" fill="green" stroke = "black" stroke-width = "1" />
<rect x = "173.201" y = "489.5" width="40" height="25" fill="green" stroke = "black" stroke-width = "1" />
<rect x = "213.201" y = "489.5" width="40" height="25" fill="green" stroke = "black" stroke-width = "1" />
<rect x = "253.201" y = "489.5" width="40" height="25" fill="green" stroke = "black" stroke-width = "1" />
<rect x = "293.201" y = "489.5" width="40" height="25" fill="green" stroke = "black" stroke-width = "1" />
<rect x = "333.201" y = "489.5" width="40" height="25" fill="green" stroke = "black" stroke-width = "1" />
<rect x = "373.201" y = "489.5" width="40" height="25" fill="green" stroke = "black" stroke-width = "1" />
<rect x = "413.201" y = "489.5" width="40" height="25" fill="green" stroke = "black" stroke-width = "1" />
<rect x = "453.201" y = "489.5" width="40" height="25" fill="green" stroke = "black" stroke-width = "1" />
<rect x = "493.201" y = "489.5" width="40" height="25" fill="green" stroke = "black" stroke-width = "1" />
<rect x = "533.201" y = "489.5" width="40" height="25" fill="green" stroke = "black" stroke-width = "1" />
<rect x = "573.201" y = "489.5" width="40" height="25" fill="green" stroke = "black" stroke-width = "1" />
<rect x = "613.201" y = "489.5" width="40" height="25" fill="green" stroke = "black" stroke-width = "1" />
<rect x = "53.2006" y = "514.5" width="40" height="25" fill="green" stroke = "black" stroke-width = "1" />
<rect x = "93.2006" y = "514.5" width="40" height="25" fill="green" stroke = "black" stroke-width = "1" />
<rect x = "133.201" y = "514.5" width="40" height="25" fill="green" stroke = "black" stroke-width = "1" />
<rect x = "173.201" y = "514.5" width="40" height="25" fill="green" stroke = "black" stroke-width = "1" />
<rect x = "213.201" y = "514.5" width="40" height="25" fill="green" stroke = "black" stroke-width = "1" />
<rect x = "253.201" y = "514.5" width="40" height="25" fill="green" stroke = "black" stroke-width = "1" />
<rect x = "293.201" y = "514.5" width="40" height="25" fill="green" stroke = "black" stroke-width = "1" />
<rect x = "333.201" y = "514.5" width="40" height="25" fill="green" stroke = "black" stroke-width = "1" />
<rect x = "373.201" y = "514.5" width="40" height="25" fill="green" stroke = "black" stroke-width = "1" />
<rect x = "413.201" y = "514.5" width="40" height="25" fill="green" stroke = "black" stroke-width = "1" />
<rect x = "453.201" y = "514.5" width="40" height="25" fill="green" stroke = "black" stroke-width = "1" />
<rect x = "493.201" y = "514.5" width="40" height="25" fill="green" stroke = "black" stroke-width = "1" />
<rect x = "533.201" y = "514.5" width="40" height="25" fill="green" stroke = "black" stroke-width = "1" />
<rect x = "573.201" y = "514.5" width="40" height="25" fill="green" stroke = "black" stroke-width = "1" />
<rect x = "613.201" y = "514.5" width="40" height="25" fill="green" stroke = "black" stroke-width = "1" />
</svg>